<svg xmlns="http://www.w3.org/2000/svg" xmlns:xlink="http://www.w3.org/1999/xlink" width="256" zoomAndPan="magnify" viewBox="0 0 192 191.999996" height="256" preserveAspectRatio="xMidYMid meet" version="1.0"><defs><g/><clipPath id="52d69c8626"><path d="M 17.839844 26 L 125 26 L 125 133 L 17.839844 133 Z M 17.839844 26 " clip-rule="nonzero"/></clipPath><clipPath id="e4b734714f"><path d="M 98 53 L 166.339844 53 L 166.339844 135 L 98 135 Z M 98 53 " clip-rule="nonzero"/></clipPath><clipPath id="165501824b"><path d="M 70 8.269531 L 139 8.269531 L 139 70 L 70 70 Z M 70 8.269531 " clip-rule="nonzero"/></clipPath></defs><g clip-path="url(#52d69c8626)"><path fill="#ffbd59" d="M 71.34375 112.558594 C 53.058594 112.558594 38.234375 97.734375 38.234375 79.453125 C 38.234375 61.167969 53.058594 46.339844 71.34375 46.339844 C 89.628906 46.339844 104.453125 61.167969 104.453125 79.453125 C 104.453125 97.734375 89.628906 112.558594 71.34375 112.558594 Z M 124.40625 86.429688 C 124.703125 84.144531 124.855469 81.816406 124.855469 79.453125 C 124.855469 77.082031 124.703125 74.757812 124.40625 72.472656 L 115.804688 69.644531 C 115.167969 66.726562 114.25 63.917969 113.078125 61.246094 L 118.371094 53.898438 C 116.128906 49.777344 113.363281 45.984375 110.15625 42.613281 L 101.535156 45.382812 C 99.335938 43.429688 96.945312 41.691406 94.394531 40.1875 L 94.367188 31.132812 C 90.214844 29.152344 85.769531 27.6875 81.109375 26.828125 L 75.761719 34.140625 C 74.308594 34 72.835938 33.925781 71.34375 33.925781 C 69.855469 33.925781 68.382812 34 66.929688 34.140625 L 61.582031 26.828125 C 56.921875 27.6875 52.472656 29.152344 48.324219 31.132812 L 48.292969 40.1875 C 45.742188 41.691406 43.355469 43.429688 41.152344 45.382812 L 32.53125 42.613281 C 29.328125 45.984375 26.558594 49.777344 24.316406 53.898438 L 29.609375 61.246094 C 28.441406 63.917969 27.523438 66.726562 26.882812 69.644531 L 18.285156 72.472656 C 17.988281 74.757812 17.832031 77.082031 17.832031 79.453125 C 17.832031 81.816406 17.988281 84.144531 18.285156 86.429688 L 26.882812 89.257812 C 27.523438 92.175781 28.441406 94.984375 29.609375 97.660156 L 24.316406 105.003906 C 26.558594 109.125 29.328125 112.917969 32.53125 116.289062 L 41.152344 113.519531 C 43.355469 115.472656 45.742188 117.214844 48.292969 118.714844 L 48.324219 127.769531 C 52.476562 129.75 56.921875 131.214844 61.582031 132.074219 L 66.929688 124.761719 C 68.382812 124.902344 69.855469 124.976562 71.34375 124.976562 C 72.835938 124.976562 74.308594 124.902344 75.761719 124.761719 L 81.109375 132.074219 C 85.769531 131.214844 90.214844 129.75 94.367188 127.769531 L 94.398438 118.714844 C 96.945312 117.214844 99.335938 115.472656 101.535156 113.519531 L 110.15625 116.289062 C 113.363281 112.917969 116.128906 109.125 118.371094 105.003906 L 113.078125 97.660156 C 114.25 94.984375 115.167969 92.175781 115.804688 89.257812 L 124.40625 86.429688 " fill-opacity="1" fill-rule="nonzero"/></g><g clip-path="url(#e4b734714f)"><path fill="#ffbd59" d="M 166.324219 99.253906 C 166.554688 97.46875 166.679688 95.648438 166.679688 93.800781 C 166.679688 91.953125 166.554688 90.132812 166.324219 88.347656 L 159.605469 86.136719 C 159.105469 83.859375 158.386719 81.664062 157.476562 79.574219 L 161.609375 73.835938 C 159.859375 70.613281 157.695312 67.652344 155.191406 65.019531 L 148.457031 67.179688 C 146.738281 65.65625 144.867188 64.296875 142.875 63.125 L 142.855469 56.046875 C 140.542969 54.941406 138.109375 54.050781 135.589844 53.382812 L 135.441406 53.433594 C 135.226562 54.183594 134.984375 54.929688 134.714844 55.667969 L 138.46875 60.875 L 137.34375 62.949219 C 136.101562 65.226562 134.636719 67.378906 132.980469 69.378906 C 144.117188 72.363281 152.324219 82.523438 152.324219 94.609375 C 152.324219 109.035156 140.628906 120.730469 126.203125 120.730469 C 121.78125 120.730469 117.617188 119.625 113.964844 117.6875 C 113.605469 118.085938 113.246094 118.484375 112.875 118.871094 L 111.253906 120.578125 L 102.371094 117.726562 C 101.015625 118.828125 99.601562 119.855469 98.140625 120.804688 L 98.136719 121.429688 L 101.277344 120.417969 C 102.996094 121.945312 104.863281 123.304688 106.855469 124.476562 L 106.878906 131.554688 C 110.121094 133.101562 113.597656 134.246094 117.238281 134.914062 L 121.414062 129.203125 C 122.550781 129.3125 123.703125 129.371094 124.863281 129.371094 C 126.03125 129.371094 127.183594 129.3125 128.316406 129.203125 L 132.492188 134.914062 C 136.136719 134.246094 139.609375 133.101562 142.855469 131.554688 L 142.875 124.476562 C 144.867188 123.304688 146.738281 121.945312 148.457031 120.417969 L 155.191406 122.585938 C 157.695312 119.945312 159.859375 116.984375 161.609375 113.765625 L 157.476562 108.027344 C 158.386719 105.9375 159.105469 103.742188 159.605469 101.464844 L 166.324219 99.253906 " fill-opacity="1" fill-rule="nonzero"/></g><g clip-path="url(#165501824b)"><path fill="#ffbd59" d="M 138.125 48.601562 C 138.328125 47.054688 138.433594 45.480469 138.433594 43.882812 C 138.433594 42.285156 138.328125 40.710938 138.125 39.164062 L 132.3125 37.253906 C 131.882812 35.28125 131.261719 33.382812 130.472656 31.578125 L 134.046875 26.609375 C 132.535156 23.824219 130.660156 21.261719 128.496094 18.984375 L 122.667969 20.851562 C 121.179688 19.535156 119.566406 18.359375 117.84375 17.34375 L 117.824219 11.222656 C 115.015625 9.882812 112.007812 8.894531 108.859375 8.316406 L 105.246094 13.257812 C 104.261719 13.160156 103.269531 13.113281 102.261719 13.113281 C 101.253906 13.113281 100.257812 13.160156 99.277344 13.257812 L 95.660156 8.316406 C 92.511719 8.894531 89.507812 9.882812 86.699219 11.222656 L 86.679688 17.34375 C 84.957031 18.359375 83.339844 19.535156 81.855469 20.851562 L 76.027344 18.984375 C 73.863281 21.261719 71.988281 23.824219 70.472656 26.609375 L 73.070312 30.210938 C 73.367188 30.222656 73.664062 30.230469 73.964844 30.246094 L 79.472656 22.714844 L 81.789062 23.140625 C 85.089844 23.75 88.324219 24.648438 91.460938 25.828125 C 94.71875 23.726562 98.59375 22.503906 102.757812 22.503906 C 114.296875 22.503906 123.652344 31.863281 123.652344 43.398438 C 123.652344 46.542969 122.953125 49.515625 121.714844 52.191406 L 122.792969 54.175781 L 117.339844 61.746094 C 117.964844 63.375 118.503906 65.042969 118.957031 66.730469 L 127.585938 69.871094 C 129.75 67.59375 132.535156 63.9375 134.046875 61.15625 L 130.472656 56.191406 C 131.261719 54.382812 131.882812 52.484375 132.3125 50.511719 L 138.125 48.601562 " fill-opacity="1" fill-rule="nonzero"/></g><g fill="#ffbd59" fill-opacity="1"><g transform="translate(49.205138, 90.575039)"><g><path d="M 27.671875 -18.96875 L 21.8125 0 L 17.828125 0 L 14.265625 -11.75 C 14.191406 -11.9375 14.125 -12.140625 14.0625 -12.359375 C 14.007812 -12.578125 13.953125 -12.804688 13.890625 -13.046875 C 13.828125 -12.804688 13.765625 -12.578125 13.703125 -12.359375 C 13.640625 -12.140625 13.578125 -11.9375 13.515625 -11.75 L 9.890625 0 L 5.90625 0 L 0.046875 -18.96875 L 3.75 -18.96875 C 4.132812 -18.96875 4.453125 -18.878906 4.703125 -18.703125 C 4.960938 -18.523438 5.128906 -18.296875 5.203125 -18.015625 L 7.8125 -8.125 C 7.882812 -7.8125 7.957031 -7.46875 8.03125 -7.09375 C 8.113281 -6.726562 8.195312 -6.347656 8.28125 -5.953125 C 8.4375 -6.765625 8.625 -7.488281 8.84375 -8.125 L 11.921875 -18.015625 C 12.003906 -18.253906 12.171875 -18.472656 12.421875 -18.671875 C 12.679688 -18.867188 12.992188 -18.96875 13.359375 -18.96875 L 14.65625 -18.96875 C 15.039062 -18.96875 15.347656 -18.878906 15.578125 -18.703125 C 15.816406 -18.523438 15.992188 -18.296875 16.109375 -18.015625 L 19.15625 -8.125 C 19.382812 -7.507812 19.578125 -6.816406 19.734375 -6.046875 C 19.796875 -6.441406 19.863281 -6.8125 19.9375 -7.15625 C 20.019531 -7.5 20.097656 -7.820312 20.171875 -8.125 L 22.78125 -18.015625 C 22.84375 -18.265625 23.003906 -18.484375 23.265625 -18.671875 C 23.523438 -18.867188 23.835938 -18.96875 24.203125 -18.96875 Z M 27.671875 -18.96875 "/></g></g></g><g fill="#ffbd59" fill-opacity="1"><g transform="translate(79.636275, 90.575039)"><g><path d="M 8.53125 -9.65625 C 9.675781 -9.65625 10.5 -9.925781 11 -10.46875 C 11.5 -11.019531 11.75 -11.785156 11.75 -12.765625 C 11.75 -13.203125 11.679688 -13.597656 11.546875 -13.953125 C 11.421875 -14.304688 11.222656 -14.609375 10.953125 -14.859375 C 10.691406 -15.117188 10.359375 -15.316406 9.953125 -15.453125 C 9.554688 -15.597656 9.082031 -15.671875 8.53125 -15.671875 L 6.234375 -15.671875 L 6.234375 -9.65625 Z M 8.53125 -18.96875 C 9.863281 -18.96875 11.007812 -18.804688 11.96875 -18.484375 C 12.925781 -18.171875 13.710938 -17.734375 14.328125 -17.171875 C 14.953125 -16.617188 15.410156 -15.960938 15.703125 -15.203125 C 16.003906 -14.453125 16.15625 -13.640625 16.15625 -12.765625 C 16.15625 -11.816406 16 -10.945312 15.6875 -10.15625 C 15.382812 -9.375 14.921875 -8.695312 14.296875 -8.125 C 13.671875 -7.5625 12.878906 -7.125 11.921875 -6.8125 C 10.960938 -6.5 9.832031 -6.34375 8.53125 -6.34375 L 6.234375 -6.34375 L 6.234375 0 L 1.828125 0 L 1.828125 -18.96875 Z M 8.53125 -18.96875 "/></g></g></g><g fill="#274082" fill-opacity="1"><g transform="translate(9.143776, 160.459281)"><g><path d="M 10.171875 -5.0625 C 10.171875 -4.332031 10.046875 -3.65625 9.796875 -3.03125 C 9.546875 -2.414062 9.1875 -1.882812 8.71875 -1.4375 C 8.257812 -0.988281 7.707031 -0.632812 7.0625 -0.375 C 6.414062 -0.125 5.703125 0 4.921875 0 L 0.984375 0 L 0.984375 -10.125 L 4.921875 -10.125 C 5.703125 -10.125 6.414062 -9.992188 7.0625 -9.734375 C 7.707031 -9.484375 8.257812 -9.132812 8.71875 -8.6875 C 9.1875 -8.238281 9.546875 -7.703125 9.796875 -7.078125 C 10.046875 -6.460938 10.171875 -5.789062 10.171875 -5.0625 Z M 7.765625 -5.0625 C 7.765625 -5.5625 7.695312 -6.015625 7.5625 -6.421875 C 7.4375 -6.828125 7.25 -7.171875 7 -7.453125 C 6.757812 -7.734375 6.460938 -7.945312 6.109375 -8.09375 C 5.765625 -8.25 5.367188 -8.328125 4.921875 -8.328125 L 3.34375 -8.328125 L 3.34375 -1.8125 L 4.921875 -1.8125 C 5.367188 -1.8125 5.765625 -1.882812 6.109375 -2.03125 C 6.460938 -2.1875 6.757812 -2.398438 7 -2.671875 C 7.25 -2.953125 7.4375 -3.296875 7.5625 -3.703125 C 7.695312 -4.109375 7.765625 -4.5625 7.765625 -5.0625 Z M 7.765625 -5.0625 "/></g></g></g><g fill="#274082" fill-opacity="1"><g transform="translate(23.601113, 160.459281)"><g><path d="M 5.203125 -1.859375 C 5.523438 -1.859375 5.804688 -1.910156 6.046875 -2.015625 C 6.296875 -2.117188 6.503906 -2.265625 6.671875 -2.453125 C 6.847656 -2.648438 6.976562 -2.890625 7.0625 -3.171875 C 7.15625 -3.453125 7.203125 -3.769531 7.203125 -4.125 L 7.203125 -10.125 L 9.5625 -10.125 L 9.5625 -4.125 C 9.5625 -3.507812 9.457031 -2.941406 9.25 -2.421875 C 9.050781 -1.898438 8.765625 -1.453125 8.390625 -1.078125 C 8.015625 -0.703125 7.554688 -0.410156 7.015625 -0.203125 C 6.484375 0.00390625 5.878906 0.109375 5.203125 0.109375 C 4.523438 0.109375 3.914062 0.00390625 3.375 -0.203125 C 2.84375 -0.410156 2.390625 -0.703125 2.015625 -1.078125 C 1.640625 -1.453125 1.351562 -1.898438 1.15625 -2.421875 C 0.957031 -2.941406 0.859375 -3.507812 0.859375 -4.125 L 0.859375 -10.125 L 3.203125 -10.125 L 3.203125 -4.140625 C 3.203125 -3.785156 3.25 -3.46875 3.34375 -3.1875 C 3.4375 -2.90625 3.566406 -2.664062 3.734375 -2.46875 C 3.898438 -2.269531 4.109375 -2.117188 4.359375 -2.015625 C 4.609375 -1.910156 4.890625 -1.859375 5.203125 -1.859375 Z M 5.203125 -1.859375 "/></g></g></g><g fill="#274082" fill-opacity="1"><g transform="translate(37.891665, 160.459281)"><g><path d="M 12.375 -10.125 L 12.375 0 L 10.296875 0 L 10.296875 -5.828125 C 10.296875 -5.960938 10.296875 -6.109375 10.296875 -6.265625 C 10.304688 -6.421875 10.320312 -6.582031 10.34375 -6.75 L 7.65625 -1.53125 C 7.570312 -1.375 7.457031 -1.253906 7.3125 -1.171875 C 7.175781 -1.085938 7.015625 -1.046875 6.828125 -1.046875 L 6.515625 -1.046875 C 6.335938 -1.046875 6.175781 -1.085938 6.03125 -1.171875 C 5.882812 -1.253906 5.769531 -1.375 5.6875 -1.53125 L 3 -6.765625 C 3.019531 -6.597656 3.03125 -6.429688 3.03125 -6.265625 C 3.039062 -6.109375 3.046875 -5.960938 3.046875 -5.828125 L 3.046875 0 L 0.984375 0 L 0.984375 -10.125 L 2.78125 -10.125 C 2.875 -10.125 2.957031 -10.117188 3.03125 -10.109375 C 3.113281 -10.109375 3.1875 -10.097656 3.25 -10.078125 C 3.3125 -10.054688 3.363281 -10.019531 3.40625 -9.96875 C 3.457031 -9.925781 3.503906 -9.859375 3.546875 -9.765625 L 6.15625 -4.625 C 6.25 -4.445312 6.335938 -4.265625 6.421875 -4.078125 C 6.515625 -3.890625 6.597656 -3.695312 6.671875 -3.5 C 6.753906 -3.695312 6.835938 -3.894531 6.921875 -4.09375 C 7.003906 -4.289062 7.097656 -4.476562 7.203125 -4.65625 L 9.796875 -9.765625 C 9.835938 -9.859375 9.882812 -9.925781 9.9375 -9.96875 C 9.988281 -10.019531 10.039062 -10.054688 10.09375 -10.078125 C 10.15625 -10.097656 10.222656 -10.109375 10.296875 -10.109375 C 10.378906 -10.117188 10.472656 -10.125 10.578125 -10.125 Z M 12.375 -10.125 "/></g></g></g><g fill="#274082" fill-opacity="1"><g transform="translate(55.114799, 160.459281)"><g><path d="M 12.375 -10.125 L 12.375 0 L 10.296875 0 L 10.296875 -5.828125 C 10.296875 -5.960938 10.296875 -6.109375 10.296875 -6.265625 C 10.304688 -6.421875 10.320312 -6.582031 10.34375 -6.75 L 7.65625 -1.53125 C 7.570312 -1.375 7.457031 -1.253906 7.3125 -1.171875 C 7.175781 -1.085938 7.015625 -1.046875 6.828125 -1.046875 L 6.515625 -1.046875 C 6.335938 -1.046875 6.175781 -1.085938 6.03125 -1.171875 C 5.882812 -1.253906 5.769531 -1.375 5.6875 -1.53125 L 3 -6.765625 C 3.019531 -6.597656 3.03125 -6.429688 3.03125 -6.265625 C 3.039062 -6.109375 3.046875 -5.960938 3.046875 -5.828125 L 3.046875 0 L 0.984375 0 L 0.984375 -10.125 L 2.78125 -10.125 C 2.875 -10.125 2.957031 -10.117188 3.03125 -10.109375 C 3.113281 -10.109375 3.1875 -10.097656 3.25 -10.078125 C 3.3125 -10.054688 3.363281 -10.019531 3.40625 -9.96875 C 3.457031 -9.925781 3.503906 -9.859375 3.546875 -9.765625 L 6.15625 -4.625 C 6.25 -4.445312 6.335938 -4.265625 6.421875 -4.078125 C 6.515625 -3.890625 6.597656 -3.695312 6.671875 -3.5 C 6.753906 -3.695312 6.835938 -3.894531 6.921875 -4.09375 C 7.003906 -4.289062 7.097656 -4.476562 7.203125 -4.65625 L 9.796875 -9.765625 C 9.835938 -9.859375 9.882812 -9.925781 9.9375 -9.96875 C 9.988281 -10.019531 10.039062 -10.054688 10.09375 -10.078125 C 10.15625 -10.097656 10.222656 -10.109375 10.296875 -10.109375 C 10.378906 -10.117188 10.472656 -10.125 10.578125 -10.125 Z M 12.375 -10.125 "/></g></g></g><g fill="#274082" fill-opacity="1"><g transform="translate(72.337933, 160.459281)"><g><path d="M 5.828125 -3.859375 L 5.828125 0 L 3.484375 0 L 3.484375 -3.859375 L -0.1875 -10.125 L 1.890625 -10.125 C 2.085938 -10.125 2.242188 -10.078125 2.359375 -9.984375 C 2.484375 -9.890625 2.582031 -9.769531 2.65625 -9.625 L 4.09375 -6.671875 C 4.21875 -6.441406 4.328125 -6.222656 4.421875 -6.015625 C 4.515625 -5.816406 4.597656 -5.625 4.671875 -5.4375 C 4.742188 -5.632812 4.828125 -5.832031 4.921875 -6.03125 C 5.015625 -6.226562 5.117188 -6.441406 5.234375 -6.671875 L 6.65625 -9.625 C 6.6875 -9.6875 6.722656 -9.742188 6.765625 -9.796875 C 6.816406 -9.859375 6.875 -9.914062 6.9375 -9.96875 C 7 -10.019531 7.066406 -10.054688 7.140625 -10.078125 C 7.222656 -10.109375 7.316406 -10.125 7.421875 -10.125 L 9.5 -10.125 Z M 5.828125 -3.859375 "/></g></g></g><g fill="#274082" fill-opacity="1"><g transform="translate(85.530504, 160.459281)"><g/></g></g><g fill="#274082" fill-opacity="1"><g transform="translate(92.621635, 160.459281)"><g><path d="M 7.8125 -2.625 C 7.863281 -2.625 7.914062 -2.613281 7.96875 -2.59375 C 8.03125 -2.570312 8.085938 -2.535156 8.140625 -2.484375 L 9.0625 -1.5 C 8.65625 -0.96875 8.144531 -0.566406 7.53125 -0.296875 C 6.914062 -0.0234375 6.191406 0.109375 5.359375 0.109375 C 4.585938 0.109375 3.894531 -0.0195312 3.28125 -0.28125 C 2.675781 -0.539062 2.160156 -0.898438 1.734375 -1.359375 C 1.304688 -1.828125 0.976562 -2.375 0.75 -3 C 0.53125 -3.632812 0.421875 -4.320312 0.421875 -5.0625 C 0.421875 -5.820312 0.539062 -6.515625 0.78125 -7.140625 C 1.03125 -7.773438 1.375 -8.320312 1.8125 -8.78125 C 2.257812 -9.25 2.796875 -9.609375 3.421875 -9.859375 C 4.046875 -10.109375 4.726562 -10.234375 5.46875 -10.234375 C 5.851562 -10.234375 6.210938 -10.203125 6.546875 -10.140625 C 6.878906 -10.078125 7.191406 -9.984375 7.484375 -9.859375 C 7.773438 -9.742188 8.039062 -9.601562 8.28125 -9.4375 C 8.53125 -9.269531 8.753906 -9.085938 8.953125 -8.890625 L 8.15625 -7.828125 C 8.101562 -7.765625 8.039062 -7.707031 7.96875 -7.65625 C 7.90625 -7.601562 7.8125 -7.578125 7.6875 -7.578125 C 7.601562 -7.578125 7.519531 -7.59375 7.4375 -7.625 C 7.363281 -7.664062 7.285156 -7.710938 7.203125 -7.765625 C 7.117188 -7.816406 7.023438 -7.875 6.921875 -7.9375 C 6.828125 -8 6.710938 -8.054688 6.578125 -8.109375 C 6.441406 -8.160156 6.28125 -8.203125 6.09375 -8.234375 C 5.914062 -8.273438 5.703125 -8.296875 5.453125 -8.296875 C 5.066406 -8.296875 4.710938 -8.222656 4.390625 -8.078125 C 4.066406 -7.941406 3.785156 -7.734375 3.546875 -7.453125 C 3.316406 -7.179688 3.140625 -6.84375 3.015625 -6.4375 C 2.890625 -6.039062 2.828125 -5.582031 2.828125 -5.0625 C 2.828125 -4.550781 2.894531 -4.09375 3.03125 -3.6875 C 3.175781 -3.28125 3.367188 -2.9375 3.609375 -2.65625 C 3.859375 -2.382812 4.144531 -2.175781 4.46875 -2.03125 C 4.789062 -1.894531 5.132812 -1.828125 5.5 -1.828125 C 5.71875 -1.828125 5.914062 -1.835938 6.09375 -1.859375 C 6.269531 -1.878906 6.429688 -1.910156 6.578125 -1.953125 C 6.734375 -2.003906 6.878906 -2.070312 7.015625 -2.15625 C 7.148438 -2.238281 7.285156 -2.34375 7.421875 -2.46875 C 7.484375 -2.507812 7.546875 -2.546875 7.609375 -2.578125 C 7.671875 -2.609375 7.738281 -2.625 7.8125 -2.625 Z M 7.8125 -2.625 "/></g></g></g><g fill="#274082" fill-opacity="1"><g transform="translate(105.612681, 160.459281)"><g><path d="M 10.921875 -5.0625 C 10.921875 -4.332031 10.796875 -3.648438 10.546875 -3.015625 C 10.296875 -2.390625 9.9375 -1.84375 9.46875 -1.375 C 9.007812 -0.914062 8.457031 -0.550781 7.8125 -0.28125 C 7.164062 -0.0195312 6.453125 0.109375 5.671875 0.109375 C 4.878906 0.109375 4.15625 -0.0195312 3.5 -0.28125 C 2.851562 -0.550781 2.300781 -0.914062 1.84375 -1.375 C 1.382812 -1.84375 1.023438 -2.390625 0.765625 -3.015625 C 0.515625 -3.648438 0.390625 -4.332031 0.390625 -5.0625 C 0.390625 -5.800781 0.515625 -6.484375 0.765625 -7.109375 C 1.023438 -7.742188 1.382812 -8.289062 1.84375 -8.75 C 2.300781 -9.21875 2.851562 -9.582031 3.5 -9.84375 C 4.15625 -10.101562 4.878906 -10.234375 5.671875 -10.234375 C 6.453125 -10.234375 7.164062 -10.097656 7.8125 -9.828125 C 8.457031 -9.566406 9.007812 -9.203125 9.46875 -8.734375 C 9.9375 -8.273438 10.296875 -7.726562 10.546875 -7.09375 C 10.796875 -6.46875 10.921875 -5.789062 10.921875 -5.0625 Z M 8.515625 -5.0625 C 8.515625 -5.5625 8.445312 -6.007812 8.3125 -6.40625 C 8.1875 -6.8125 8 -7.15625 7.75 -7.4375 C 7.507812 -7.71875 7.210938 -7.929688 6.859375 -8.078125 C 6.515625 -8.222656 6.117188 -8.296875 5.671875 -8.296875 C 5.210938 -8.296875 4.804688 -8.222656 4.453125 -8.078125 C 4.097656 -7.929688 3.796875 -7.71875 3.546875 -7.4375 C 3.304688 -7.15625 3.117188 -6.8125 2.984375 -6.40625 C 2.859375 -6.007812 2.796875 -5.5625 2.796875 -5.0625 C 2.796875 -4.5625 2.859375 -4.109375 2.984375 -3.703125 C 3.117188 -3.304688 3.304688 -2.96875 3.546875 -2.6875 C 3.796875 -2.414062 4.097656 -2.203125 4.453125 -2.046875 C 4.804688 -1.898438 5.210938 -1.828125 5.671875 -1.828125 C 6.117188 -1.828125 6.515625 -1.898438 6.859375 -2.046875 C 7.210938 -2.203125 7.507812 -2.414062 7.75 -2.6875 C 8 -2.96875 8.1875 -3.304688 8.3125 -3.703125 C 8.445312 -4.109375 8.515625 -4.5625 8.515625 -5.0625 Z M 8.515625 -5.0625 "/></g></g></g><g fill="#274082" fill-opacity="1"><g transform="translate(120.813592, 160.459281)"><g><path d="M 9.828125 -10.125 L 9.828125 0 L 8.59375 0 C 8.414062 0 8.265625 -0.0234375 8.140625 -0.078125 C 8.023438 -0.140625 7.90625 -0.242188 7.78125 -0.390625 L 3 -6.4375 C 3.019531 -6.25 3.03125 -6.070312 3.03125 -5.90625 C 3.039062 -5.738281 3.046875 -5.582031 3.046875 -5.4375 L 3.046875 0 L 0.984375 0 L 0.984375 -10.125 L 2.21875 -10.125 C 2.320312 -10.125 2.40625 -10.117188 2.46875 -10.109375 C 2.539062 -10.109375 2.601562 -10.09375 2.65625 -10.0625 C 2.71875 -10.039062 2.773438 -10.003906 2.828125 -9.953125 C 2.878906 -9.910156 2.9375 -9.847656 3 -9.765625 L 7.8125 -3.6875 C 7.789062 -3.882812 7.773438 -4.070312 7.765625 -4.25 C 7.753906 -4.4375 7.75 -4.609375 7.75 -4.765625 L 7.75 -10.125 Z M 9.828125 -10.125 "/></g></g></g><g fill="#274082" fill-opacity="1"><g transform="translate(135.493294, 160.459281)"><g><path d="M 8.265625 -8.265625 L 5.40625 -8.265625 L 5.40625 0 L 3.0625 0 L 3.0625 -8.265625 L 0.203125 -8.265625 L 0.203125 -10.125 L 8.265625 -10.125 Z M 8.265625 -8.265625 "/></g></g></g><g fill="#274082" fill-opacity="1"><g transform="translate(147.838058, 160.459281)"><g><path d="M 3.34375 -8.328125 L 3.34375 -5.953125 L 6.53125 -5.953125 L 6.53125 -4.21875 L 3.34375 -4.21875 L 3.34375 -1.8125 L 7.5 -1.8125 L 7.5 0 L 0.984375 0 L 0.984375 -10.125 L 7.5 -10.125 L 7.5 -8.328125 Z M 3.34375 -8.328125 "/></g></g></g><g fill="#274082" fill-opacity="1"><g transform="translate(159.682486, 160.459281)"><g><path d="M 9.828125 -10.125 L 9.828125 0 L 8.59375 0 C 8.414062 0 8.265625 -0.0234375 8.140625 -0.078125 C 8.023438 -0.140625 7.90625 -0.242188 7.78125 -0.390625 L 3 -6.4375 C 3.019531 -6.25 3.03125 -6.070312 3.03125 -5.90625 C 3.039062 -5.738281 3.046875 -5.582031 3.046875 -5.4375 L 3.046875 0 L 0.984375 0 L 0.984375 -10.125 L 2.21875 -10.125 C 2.320312 -10.125 2.40625 -10.117188 2.46875 -10.109375 C 2.539062 -10.109375 2.601562 -10.09375 2.65625 -10.0625 C 2.71875 -10.039062 2.773438 -10.003906 2.828125 -9.953125 C 2.878906 -9.910156 2.9375 -9.847656 3 -9.765625 L 7.8125 -3.6875 C 7.789062 -3.882812 7.773438 -4.070312 7.765625 -4.25 C 7.753906 -4.4375 7.75 -4.609375 7.75 -4.765625 L 7.75 -10.125 Z M 9.828125 -10.125 "/></g></g></g><g fill="#274082" fill-opacity="1"><g transform="translate(174.362188, 160.459281)"><g><path d="M 8.265625 -8.265625 L 5.40625 -8.265625 L 5.40625 0 L 3.0625 0 L 3.0625 -8.265625 L 0.203125 -8.265625 L 0.203125 -10.125 L 8.265625 -10.125 Z M 8.265625 -8.265625 "/></g></g></g><g fill="#ffbd59" fill-opacity="1"><g transform="translate(38.112524, 179.20928)"><g><path d="M 5.84375 -5.25 L 9.453125 -5.25 L 9.453125 -0.96875 C 8.929688 -0.59375 8.375 -0.316406 7.78125 -0.140625 C 7.195312 0.0234375 6.585938 0.109375 5.953125 0.109375 C 5.117188 0.109375 4.359375 -0.0195312 3.671875 -0.28125 C 2.992188 -0.539062 2.410156 -0.898438 1.921875 -1.359375 C 1.429688 -1.828125 1.050781 -2.375 0.78125 -3 C 0.519531 -3.632812 0.390625 -4.320312 0.390625 -5.0625 C 0.390625 -5.820312 0.515625 -6.515625 0.765625 -7.140625 C 1.015625 -7.773438 1.375 -8.320312 1.84375 -8.78125 C 2.3125 -9.25 2.875 -9.609375 3.53125 -9.859375 C 4.195312 -10.109375 4.9375 -10.234375 5.75 -10.234375 C 6.175781 -10.234375 6.570312 -10.195312 6.9375 -10.125 C 7.3125 -10.0625 7.65625 -9.96875 7.96875 -9.84375 C 8.28125 -9.726562 8.566406 -9.585938 8.828125 -9.421875 C 9.085938 -9.253906 9.316406 -9.070312 9.515625 -8.875 L 8.84375 -7.84375 C 8.726562 -7.675781 8.585938 -7.570312 8.421875 -7.53125 C 8.253906 -7.5 8.070312 -7.546875 7.875 -7.671875 C 7.6875 -7.785156 7.507812 -7.878906 7.34375 -7.953125 C 7.1875 -8.035156 7.019531 -8.101562 6.84375 -8.15625 C 6.675781 -8.207031 6.492188 -8.242188 6.296875 -8.265625 C 6.109375 -8.285156 5.898438 -8.296875 5.671875 -8.296875 C 5.222656 -8.296875 4.820312 -8.21875 4.46875 -8.0625 C 4.125 -7.914062 3.828125 -7.695312 3.578125 -7.40625 C 3.328125 -7.125 3.132812 -6.785156 3 -6.390625 C 2.863281 -5.992188 2.796875 -5.550781 2.796875 -5.0625 C 2.796875 -4.53125 2.867188 -4.054688 3.015625 -3.640625 C 3.171875 -3.222656 3.382812 -2.867188 3.65625 -2.578125 C 3.925781 -2.296875 4.25 -2.078125 4.625 -1.921875 C 5 -1.773438 5.414062 -1.703125 5.875 -1.703125 C 6.164062 -1.703125 6.425781 -1.726562 6.65625 -1.78125 C 6.882812 -1.832031 7.109375 -1.90625 7.328125 -2 L 7.328125 -3.546875 L 6.328125 -3.546875 C 6.171875 -3.546875 6.050781 -3.582031 5.96875 -3.65625 C 5.882812 -3.738281 5.84375 -3.835938 5.84375 -3.953125 Z M 5.84375 -5.25 "/></g></g></g><g fill="#ffbd59" fill-opacity="1"><g transform="translate(52.03477, 179.20928)"><g><path d="M 3.34375 -8.328125 L 3.34375 -5.953125 L 6.53125 -5.953125 L 6.53125 -4.21875 L 3.34375 -4.21875 L 3.34375 -1.8125 L 7.5 -1.8125 L 7.5 0 L 0.984375 0 L 0.984375 -10.125 L 7.5 -10.125 L 7.5 -8.328125 Z M 3.34375 -8.328125 "/></g></g></g><g fill="#ffbd59" fill-opacity="1"><g transform="translate(63.879193, 179.20928)"><g><path d="M 9.828125 -10.125 L 9.828125 0 L 8.59375 0 C 8.414062 0 8.265625 -0.0234375 8.140625 -0.078125 C 8.023438 -0.140625 7.90625 -0.242188 7.78125 -0.390625 L 3 -6.4375 C 3.019531 -6.25 3.03125 -6.070312 3.03125 -5.90625 C 3.039062 -5.738281 3.046875 -5.582031 3.046875 -5.4375 L 3.046875 0 L 0.984375 0 L 0.984375 -10.125 L 2.21875 -10.125 C 2.320312 -10.125 2.40625 -10.117188 2.46875 -10.109375 C 2.539062 -10.109375 2.601562 -10.09375 2.65625 -10.0625 C 2.71875 -10.039062 2.773438 -10.003906 2.828125 -9.953125 C 2.878906 -9.910156 2.9375 -9.847656 3 -9.765625 L 7.8125 -3.6875 C 7.789062 -3.882812 7.773438 -4.070312 7.765625 -4.25 C 7.753906 -4.4375 7.75 -4.609375 7.75 -4.765625 L 7.75 -10.125 Z M 9.828125 -10.125 "/></g></g></g><g fill="#ffbd59" fill-opacity="1"><g transform="translate(78.558901, 179.20928)"><g><path d="M 3.34375 -8.328125 L 3.34375 -5.953125 L 6.53125 -5.953125 L 6.53125 -4.21875 L 3.34375 -4.21875 L 3.34375 -1.8125 L 7.5 -1.8125 L 7.5 0 L 0.984375 0 L 0.984375 -10.125 L 7.5 -10.125 L 7.5 -8.328125 Z M 3.34375 -8.328125 "/></g></g></g><g fill="#ffbd59" fill-opacity="1"><g transform="translate(90.403323, 179.20928)"><g><path d="M 4.28125 -5.375 C 4.59375 -5.375 4.863281 -5.410156 5.09375 -5.484375 C 5.320312 -5.566406 5.503906 -5.679688 5.640625 -5.828125 C 5.785156 -5.972656 5.890625 -6.140625 5.953125 -6.328125 C 6.023438 -6.523438 6.0625 -6.734375 6.0625 -6.953125 C 6.0625 -7.398438 5.914062 -7.75 5.625 -8 C 5.332031 -8.25 4.882812 -8.375 4.28125 -8.375 L 3.328125 -8.375 L 3.328125 -5.375 Z M 9.265625 0 L 7.140625 0 C 6.742188 0 6.460938 -0.144531 6.296875 -0.4375 L 4.609375 -3.390625 C 4.523438 -3.515625 4.4375 -3.601562 4.34375 -3.65625 C 4.25 -3.71875 4.109375 -3.75 3.921875 -3.75 L 3.328125 -3.75 L 3.328125 0 L 0.984375 0 L 0.984375 -10.125 L 4.28125 -10.125 C 5.007812 -10.125 5.628906 -10.046875 6.140625 -9.890625 C 6.660156 -9.742188 7.082031 -9.535156 7.40625 -9.265625 C 7.738281 -9.003906 7.976562 -8.691406 8.125 -8.328125 C 8.269531 -7.960938 8.34375 -7.5625 8.34375 -7.125 C 8.34375 -6.800781 8.300781 -6.488281 8.21875 -6.1875 C 8.132812 -5.894531 8.003906 -5.625 7.828125 -5.375 C 7.660156 -5.132812 7.445312 -4.914062 7.1875 -4.71875 C 6.9375 -4.519531 6.648438 -4.359375 6.328125 -4.234375 C 6.472656 -4.160156 6.613281 -4.0625 6.75 -3.9375 C 6.882812 -3.820312 7.003906 -3.6875 7.109375 -3.53125 Z M 9.265625 0 "/></g></g></g><g fill="#ffbd59" fill-opacity="1"><g transform="translate(103.422161, 179.20928)"><g><path d="M 6.328125 -3.875 L 5.390625 -6.640625 C 5.328125 -6.816406 5.253906 -7.023438 5.171875 -7.265625 C 5.097656 -7.503906 5.019531 -7.765625 4.9375 -8.046875 C 4.863281 -7.765625 4.785156 -7.5 4.703125 -7.25 C 4.628906 -7.007812 4.554688 -6.804688 4.484375 -6.640625 L 3.5625 -3.875 Z M 10.0625 0 L 8.25 0 C 8.039062 0 7.875 -0.046875 7.75 -0.140625 C 7.625 -0.234375 7.53125 -0.351562 7.46875 -0.5 L 6.875 -2.28125 L 3.015625 -2.28125 L 2.421875 -0.5 C 2.367188 -0.375 2.273438 -0.257812 2.140625 -0.15625 C 2.015625 -0.0507812 1.851562 0 1.65625 0 L -0.1875 0 L 3.734375 -10.125 L 6.140625 -10.125 Z M 10.0625 0 "/></g></g></g><g fill="#ffbd59" fill-opacity="1"><g transform="translate(117.184567, 179.20928)"><g><path d="M 8.265625 -8.265625 L 5.40625 -8.265625 L 5.40625 0 L 3.0625 0 L 3.0625 -8.265625 L 0.203125 -8.265625 L 0.203125 -10.125 L 8.265625 -10.125 Z M 8.265625 -8.265625 "/></g></g></g><g fill="#ffbd59" fill-opacity="1"><g transform="translate(129.529326, 179.20928)"><g><path d="M 10.921875 -5.0625 C 10.921875 -4.332031 10.796875 -3.648438 10.546875 -3.015625 C 10.296875 -2.390625 9.9375 -1.84375 9.46875 -1.375 C 9.007812 -0.914062 8.457031 -0.550781 7.8125 -0.28125 C 7.164062 -0.0195312 6.453125 0.109375 5.671875 0.109375 C 4.878906 0.109375 4.15625 -0.0195312 3.5 -0.28125 C 2.851562 -0.550781 2.300781 -0.914062 1.84375 -1.375 C 1.382812 -1.84375 1.023438 -2.390625 0.765625 -3.015625 C 0.515625 -3.648438 0.390625 -4.332031 0.390625 -5.0625 C 0.390625 -5.800781 0.515625 -6.484375 0.765625 -7.109375 C 1.023438 -7.742188 1.382812 -8.289062 1.84375 -8.75 C 2.300781 -9.21875 2.851562 -9.582031 3.5 -9.84375 C 4.15625 -10.101562 4.878906 -10.234375 5.671875 -10.234375 C 6.453125 -10.234375 7.164062 -10.097656 7.8125 -9.828125 C 8.457031 -9.566406 9.007812 -9.203125 9.46875 -8.734375 C 9.9375 -8.273438 10.296875 -7.726562 10.546875 -7.09375 C 10.796875 -6.46875 10.921875 -5.789062 10.921875 -5.0625 Z M 8.515625 -5.0625 C 8.515625 -5.5625 8.445312 -6.007812 8.3125 -6.40625 C 8.1875 -6.8125 8 -7.15625 7.75 -7.4375 C 7.507812 -7.71875 7.210938 -7.929688 6.859375 -8.078125 C 6.515625 -8.222656 6.117188 -8.296875 5.671875 -8.296875 C 5.210938 -8.296875 4.804688 -8.222656 4.453125 -8.078125 C 4.097656 -7.929688 3.796875 -7.71875 3.546875 -7.4375 C 3.304688 -7.15625 3.117188 -6.8125 2.984375 -6.40625 C 2.859375 -6.007812 2.796875 -5.5625 2.796875 -5.0625 C 2.796875 -4.5625 2.859375 -4.109375 2.984375 -3.703125 C 3.117188 -3.304688 3.304688 -2.96875 3.546875 -2.6875 C 3.796875 -2.414062 4.097656 -2.203125 4.453125 -2.046875 C 4.804688 -1.898438 5.210938 -1.828125 5.671875 -1.828125 C 6.117188 -1.828125 6.515625 -1.898438 6.859375 -2.046875 C 7.210938 -2.203125 7.507812 -2.414062 7.75 -2.6875 C 8 -2.96875 8.1875 -3.304688 8.3125 -3.703125 C 8.445312 -4.109375 8.515625 -4.5625 8.515625 -5.0625 Z M 8.515625 -5.0625 "/></g></g></g><g fill="#ffbd59" fill-opacity="1"><g transform="translate(144.730232, 179.20928)"><g><path d="M 4.28125 -5.375 C 4.59375 -5.375 4.863281 -5.410156 5.09375 -5.484375 C 5.320312 -5.566406 5.503906 -5.679688 5.640625 -5.828125 C 5.785156 -5.972656 5.890625 -6.140625 5.953125 -6.328125 C 6.023438 -6.523438 6.0625 -6.734375 6.0625 -6.953125 C 6.0625 -7.398438 5.914062 -7.75 5.625 -8 C 5.332031 -8.25 4.882812 -8.375 4.28125 -8.375 L 3.328125 -8.375 L 3.328125 -5.375 Z M 9.265625 0 L 7.140625 0 C 6.742188 0 6.460938 -0.144531 6.296875 -0.4375 L 4.609375 -3.390625 C 4.523438 -3.515625 4.4375 -3.601562 4.34375 -3.65625 C 4.25 -3.71875 4.109375 -3.75 3.921875 -3.75 L 3.328125 -3.75 L 3.328125 0 L 0.984375 0 L 0.984375 -10.125 L 4.28125 -10.125 C 5.007812 -10.125 5.628906 -10.046875 6.140625 -9.890625 C 6.660156 -9.742188 7.082031 -9.535156 7.40625 -9.265625 C 7.738281 -9.003906 7.976562 -8.691406 8.125 -8.328125 C 8.269531 -7.960938 8.34375 -7.5625 8.34375 -7.125 C 8.34375 -6.800781 8.300781 -6.488281 8.21875 -6.1875 C 8.132812 -5.894531 8.003906 -5.625 7.828125 -5.375 C 7.660156 -5.132812 7.445312 -4.914062 7.1875 -4.71875 C 6.9375 -4.519531 6.648438 -4.359375 6.328125 -4.234375 C 6.472656 -4.160156 6.613281 -4.0625 6.75 -3.9375 C 6.882812 -3.820312 7.003906 -3.6875 7.109375 -3.53125 Z M 9.265625 0 "/></g></g></g></svg>